solid 
   facet normal -1.000000e+00 0.000000e+00 0.000000e+00
      outer loop
         vertex 2.700000e+01 1.150000e+01 2.000000e+00
         vertex 2.700000e+01 9.000000e+00 2.000000e+00
         vertex 2.700000e+01 1.150000e+01 1.200000e+01
      endloop
   endfacet
   facet normal -1.000000e+00 0.000000e+00 0.000000e+00
      outer loop
         vertex 2.700000e+01 9.000000e+00 0.000000e+00
         vertex 2.700000e+01 -9.000000e+00 0.000000e+00
         vertex 2.700000e+01 -4.500000e+00 3.000000e+00
      endloop
   endfacet
   facet normal -1.000000e+00 0.000000e+00 0.000000e+00
      outer loop
         vertex 2.700000e+01 -9.000000e+00 2.000000e+00
         vertex 2.700000e+01 -1.150000e+01 2.000000e+00
         vertex 2.700000e+01 -1.150000e+01 1.200000e+01
      endloop
   endfacet
   facet normal -1.000000e+00 0.000000e+00 0.000000e+00
      outer loop
         vertex 2.700000e+01 4.500000e+00 3.000000e+00
         vertex 2.700000e+01 4.500000e+00 7.000000e+00
         vertex 2.700000e+01 9.000000e+00 2.000000e+00
      endloop
   endfacet
   facet normal -1.000000e+00 -0.000000e+00 0.000000e+00
      outer loop
         vertex 2.700000e+01 -4.500000e+00 7.000000e+00
         vertex 2.700000e+01 -4.500000e+00 3.000000e+00
         vertex 2.700000e+01 -9.000000e+00 2.000000e+00
      endloop
   endfacet
   facet normal -1.000000e+00 0.000000e+00 0.000000e+00
      outer loop
         vertex 2.700000e+01 1.150000e+01 1.200000e+01
         vertex 2.700000e+01 9.000000e+00 2.000000e+00
         vertex 2.700000e+01 4.500000e+00 7.000000e+00
      endloop
   endfacet
   facet normal -1.000000e+00 0.000000e+00 0.000000e+00
      outer loop
         vertex 2.700000e+01 -4.500000e+00 3.000000e+00
         vertex 2.700000e+01 -9.000000e+00 0.000000e+00
         vertex 2.700000e+01 -9.000000e+00 2.000000e+00
      endloop
   endfacet
   facet normal -1.000000e+00 0.000000e+00 0.000000e+00
      outer loop
         vertex 2.700000e+01 -4.500000e+00 7.000000e+00
         vertex 2.700000e+01 -9.000000e+00 2.000000e+00
         vertex 2.700000e+01 -1.150000e+01 1.200000e+01
      endloop
   endfacet
   facet normal -1.000000e+00 0.000000e+00 0.000000e+00
      outer loop
         vertex 2.700000e+01 9.000000e+00 2.000000e+00
         vertex 2.700000e+01 9.000000e+00 0.000000e+00
         vertex 2.700000e+01 4.500000e+00 3.000000e+00
      endloop
   endfacet
   facet normal -1.000000e+00 0.000000e+00 0.000000e+00
      outer loop
         vertex 2.700000e+01 4.500000e+00 7.000000e+00
         vertex 2.700000e+01 -4.500000e+00 7.000000e+00
         vertex 2.700000e+01 1.150000e+01 1.200000e+01
      endloop
   endfacet
   facet normal -1.000000e+00 0.000000e+00 0.000000e+00
      outer loop
         vertex 2.700000e+01 9.000000e+00 0.000000e+00
         vertex 2.700000e+01 -4.500000e+00 3.000000e+00
         vertex 2.700000e+01 4.500000e+00 3.000000e+00
      endloop
   endfacet
   facet normal -1.000000e+00 -0.000000e+00 0.000000e+00
      outer loop
         vertex 2.700000e+01 -1.150000e+01 1.200000e+01
         vertex 2.700000e+01 1.150000e+01 1.200000e+01
         vertex 2.700000e+01 -4.500000e+00 7.000000e+00
      endloop
   endfacet
   facet normal 0.000000e+00 1.000000e+00 -0.000000e+00
      outer loop
         vertex 2.700000e+01 -1.150000e+01 1.200000e+01
         vertex 2.700000e+01 -1.150000e+01 2.000000e+00
         vertex -2.700000e+01 -1.150000e+01 2.000000e+00
      endloop
   endfacet
   facet normal 0.000000e+00 1.000000e+00 0.000000e+00
      outer loop
         vertex -2.700000e+01 -1.150000e+01 1.200000e+01
         vertex 2.700000e+01 -1.150000e+01 1.200000e+01
         vertex -2.700000e+01 -1.150000e+01 2.000000e+00
      endloop
   endfacet
   facet normal 0.000000e+00 -1.000000e+00 0.000000e+00
      outer loop
         vertex -2.700000e+01 1.150000e+01 1.200000e+01
         vertex -2.700000e+01 1.150000e+01 2.000000e+00
         vertex 2.700000e+01 1.150000e+01 2.000000e+00
      endloop
   endfacet
   facet normal 0.000000e+00 -1.000000e+00 0.000000e+00
      outer loop
         vertex 2.700000e+01 1.150000e+01 1.200000e+01
         vertex -2.700000e+01 1.150000e+01 1.200000e+01
         vertex 2.700000e+01 1.150000e+01 2.000000e+00
      endloop
   endfacet
   facet normal 0.000000e+00 0.000000e+00 1.000000e+00
      outer loop
         vertex 2.700000e+01 -9.000000e+00 0.000000e+00
         vertex 2.700000e+01 9.000000e+00 0.000000e+00
         vertex -2.700000e+01 -9.000000e+00 0.000000e+00
      endloop
   endfacet
   facet normal 0.000000e+00 0.000000e+00 1.000000e+00
      outer loop
         vertex -2.700000e+01 9.000000e+00 0.000000e+00
         vertex -2.700000e+01 -9.000000e+00 0.000000e+00
         vertex 2.700000e+01 9.000000e+00 0.000000e+00
      endloop
   endfacet
   facet normal 1.000000e+00 0.000000e+00 0.000000e+00
      outer loop
         vertex -2.700000e+01 -9.000000e+00 0.000000e+00
         vertex -2.700000e+01 9.000000e+00 0.000000e+00
         vertex -2.700000e+01 -6.000000e+00 4.000000e+00
      endloop
   endfacet
   facet normal 1.000000e+00 0.000000e+00 0.000000e+00
      outer loop
         vertex -2.700000e+01 9.000000e+00 2.000000e+00
         vertex -2.700000e+01 1.150000e+01 2.000000e+00
         vertex -2.700000e+01 6.000000e+00 8.000000e+00
      endloop
   endfacet
   facet normal 1.000000e+00 -0.000000e+00 0.000000e+00
      outer loop
         vertex -2.700000e+01 1.150000e+01 1.200000e+01
         vertex -2.700000e+01 -1.150000e+01 1.200000e+01
         vertex -2.700000e+01 6.000000e+00 8.000000e+00
      endloop
   endfacet
   facet normal 1.000000e+00 0.000000e+00 -0.000000e+00
      outer loop
         vertex -2.700000e+01 -1.150000e+01 2.000000e+00
         vertex -2.700000e+01 -9.000000e+00 2.000000e+00
         vertex -2.700000e+01 -6.000000e+00 8.000000e+00
      endloop
   endfacet
   facet normal 1.000000e+00 0.000000e+00 0.000000e+00
      outer loop
         vertex -2.700000e+01 -6.000000e+00 4.000000e+00
         vertex -2.700000e+01 -6.000000e+00 8.000000e+00
         vertex -2.700000e+01 -9.000000e+00 2.000000e+00
      endloop
   endfacet
   facet normal 1.000000e+00 -0.000000e+00 0.000000e+00
      outer loop
         vertex -2.700000e+01 6.000000e+00 8.000000e+00
         vertex -2.700000e+01 6.000000e+00 4.000000e+00
         vertex -2.700000e+01 9.000000e+00 2.000000e+00
      endloop
   endfacet
   facet normal 1.000000e+00 0.000000e+00 0.000000e+00
      outer loop
         vertex -2.700000e+01 -9.000000e+00 0.000000e+00
         vertex -2.700000e+01 -6.000000e+00 4.000000e+00
         vertex -2.700000e+01 -9.000000e+00 2.000000e+00
      endloop
   endfacet
   facet normal 1.000000e+00 -0.000000e+00 0.000000e+00
      outer loop
         vertex -2.700000e+01 1.150000e+01 1.200000e+01
         vertex -2.700000e+01 6.000000e+00 8.000000e+00
         vertex -2.700000e+01 1.150000e+01 2.000000e+00
      endloop
   endfacet
   facet normal 1.000000e+00 0.000000e+00 0.000000e+00
      outer loop
         vertex -2.700000e+01 9.000000e+00 0.000000e+00
         vertex -2.700000e+01 9.000000e+00 2.000000e+00
         vertex -2.700000e+01 6.000000e+00 4.000000e+00
      endloop
   endfacet
   facet normal 1.000000e+00 0.000000e+00 0.000000e+00
      outer loop
         vertex -2.700000e+01 -6.000000e+00 8.000000e+00
         vertex -2.700000e+01 6.000000e+00 8.000000e+00
         vertex -2.700000e+01 -1.150000e+01 1.200000e+01
      endloop
   endfacet
   facet normal 1.000000e+00 0.000000e+00 0.000000e+00
      outer loop
         vertex -2.700000e+01 -6.000000e+00 4.000000e+00
         vertex -2.700000e+01 9.000000e+00 0.000000e+00
         vertex -2.700000e+01 6.000000e+00 4.000000e+00
      endloop
   endfacet
   facet normal 1.000000e+00 0.000000e+00 0.000000e+00
      outer loop
         vertex -2.700000e+01 -1.150000e+01 1.200000e+01
         vertex -2.700000e+01 -1.150000e+01 2.000000e+00
         vertex -2.700000e+01 -6.000000e+00 8.000000e+00
      endloop
   endfacet
   facet normal -0.000000e+00 0.000000e+00 1.000000e+00
      outer loop
         vertex 2.700000e+01 -9.000000e+00 2.000000e+00
         vertex -2.700000e+01 -9.000000e+00 2.000000e+00
         vertex -2.700000e+01 -1.150000e+01 2.000000e+00
      endloop
   endfacet
   facet normal 0.000000e+00 0.000000e+00 1.000000e+00
      outer loop
         vertex 2.700000e+01 -1.150000e+01 2.000000e+00
         vertex 2.700000e+01 -9.000000e+00 2.000000e+00
         vertex -2.700000e+01 -1.150000e+01 2.000000e+00
      endloop
   endfacet
   facet normal 0.000000e+00 1.000000e+00 0.000000e+00
      outer loop
         vertex 2.700000e+01 -9.000000e+00 0.000000e+00
         vertex -2.700000e+01 -9.000000e+00 0.000000e+00
         vertex -2.700000e+01 -9.000000e+00 2.000000e+00
      endloop
   endfacet
   facet normal 0.000000e+00 1.000000e+00 -0.000000e+00
      outer loop
         vertex 2.700000e+01 -9.000000e+00 2.000000e+00
         vertex 2.700000e+01 -9.000000e+00 0.000000e+00
         vertex -2.700000e+01 -9.000000e+00 2.000000e+00
      endloop
   endfacet
   facet normal -0.000000e+00 0.000000e+00 1.000000e+00
      outer loop
         vertex 2.700000e+01 1.150000e+01 2.000000e+00
         vertex -2.700000e+01 1.150000e+01 2.000000e+00
         vertex -2.700000e+01 9.000000e+00 2.000000e+00
      endloop
   endfacet
   facet normal 0.000000e+00 0.000000e+00 1.000000e+00
      outer loop
         vertex 2.700000e+01 9.000000e+00 2.000000e+00
         vertex 2.700000e+01 1.150000e+01 2.000000e+00
         vertex -2.700000e+01 9.000000e+00 2.000000e+00
      endloop
   endfacet
   facet normal 0.000000e+00 -1.000000e+00 0.000000e+00
      outer loop
         vertex 2.700000e+01 9.000000e+00 2.000000e+00
         vertex -2.700000e+01 9.000000e+00 2.000000e+00
         vertex 2.700000e+01 9.000000e+00 0.000000e+00
      endloop
   endfacet
   facet normal 0.000000e+00 -1.000000e+00 0.000000e+00
      outer loop
         vertex -2.700000e+01 9.000000e+00 0.000000e+00
         vertex 2.700000e+01 9.000000e+00 0.000000e+00
         vertex -2.700000e+01 9.000000e+00 2.000000e+00
      endloop
   endfacet
   facet normal -0.000000e+00 0.000000e+00 1.000000e+00
      outer loop
         vertex 2.900000e+01 1.350000e+01 1.200000e+01
         vertex -2.900000e+01 1.350000e+01 1.200000e+01
         vertex -2.700000e+01 1.150000e+01 1.200000e+01
      endloop
   endfacet
   facet normal 0.000000e+00 0.000000e+00 1.000000e+00
      outer loop
         vertex -2.900000e+01 -1.350000e+01 1.200000e+01
         vertex 2.900000e+01 -1.350000e+01 1.200000e+01
         vertex -2.700000e+01 -1.150000e+01 1.200000e+01
      endloop
   endfacet
   facet normal 0.000000e+00 0.000000e+00 1.000000e+00
      outer loop
         vertex -2.700000e+01 -1.150000e+01 1.200000e+01
         vertex -2.700000e+01 1.150000e+01 1.200000e+01
         vertex -2.900000e+01 1.350000e+01 1.200000e+01
      endloop
   endfacet
   facet normal 0.000000e+00 0.000000e+00 1.000000e+00
      outer loop
         vertex 2.700000e+01 1.150000e+01 1.200000e+01
         vertex 2.700000e+01 -1.150000e+01 1.200000e+01
         vertex 2.900000e+01 1.350000e+01 1.200000e+01
      endloop
   endfacet
   facet normal 0.000000e+00 0.000000e+00 1.000000e+00
      outer loop
         vertex 2.900000e+01 1.350000e+01 1.200000e+01
         vertex -2.700000e+01 1.150000e+01 1.200000e+01
         vertex 2.700000e+01 1.150000e+01 1.200000e+01
      endloop
   endfacet
   facet normal 0.000000e+00 0.000000e+00 1.000000e+00
      outer loop
         vertex -2.700000e+01 -1.150000e+01 1.200000e+01
         vertex -2.900000e+01 1.350000e+01 1.200000e+01
         vertex -2.900000e+01 -1.350000e+01 1.200000e+01
      endloop
   endfacet
   facet normal 0.000000e+00 0.000000e+00 1.000000e+00
      outer loop
         vertex 2.900000e+01 -1.350000e+01 1.200000e+01
         vertex 2.900000e+01 1.350000e+01 1.200000e+01
         vertex 2.700000e+01 -1.150000e+01 1.200000e+01
      endloop
   endfacet
   facet normal 0.000000e+00 0.000000e+00 1.000000e+00
      outer loop
         vertex -2.700000e+01 -1.150000e+01 1.200000e+01
         vertex 2.900000e+01 -1.350000e+01 1.200000e+01
         vertex 2.700000e+01 -1.150000e+01 1.200000e+01
      endloop
   endfacet
   facet normal 0.000000e+00 0.000000e+00 -1.000000e+00
      outer loop
         vertex 2.700000e+01 4.500000e+00 7.000000e+00
         vertex 2.900000e+01 -4.500000e+00 7.000000e+00
         vertex 2.700000e+01 -4.500000e+00 7.000000e+00
      endloop
   endfacet
   facet normal 0.000000e+00 0.000000e+00 -1.000000e+00
      outer loop
         vertex 2.900000e+01 -4.500000e+00 7.000000e+00
         vertex 2.700000e+01 4.500000e+00 7.000000e+00
         vertex 2.900000e+01 4.500000e+00 7.000000e+00
      endloop
   endfacet
   facet normal 0.000000e+00 1.000000e+00 -0.000000e+00
      outer loop
         vertex 2.900000e+01 -4.500000e+00 7.000000e+00
         vertex 2.900000e+01 -4.500000e+00 3.000000e+00
         vertex 2.700000e+01 -4.500000e+00 3.000000e+00
      endloop
   endfacet
   facet normal 0.000000e+00 1.000000e+00 0.000000e+00
      outer loop
         vertex 2.900000e+01 -4.500000e+00 7.000000e+00
         vertex 2.700000e+01 -4.500000e+00 3.000000e+00
         vertex 2.700000e+01 -4.500000e+00 7.000000e+00
      endloop
   endfacet
   facet normal 0.000000e+00 0.000000e+00 1.000000e+00
      outer loop
         vertex 2.900000e+01 -4.500000e+00 3.000000e+00
         vertex 2.900000e+01 4.500000e+00 3.000000e+00
         vertex 2.700000e+01 4.500000e+00 3.000000e+00
      endloop
   endfacet
   facet normal 0.000000e+00 0.000000e+00 1.000000e+00
      outer loop
         vertex 2.900000e+01 -4.500000e+00 3.000000e+00
         vertex 2.700000e+01 4.500000e+00 3.000000e+00
         vertex 2.700000e+01 -4.500000e+00 3.000000e+00
      endloop
   endfacet
   facet normal -0.000000e+00 -1.000000e+00 0.000000e+00
      outer loop
         vertex 2.700000e+01 4.500000e+00 3.000000e+00
         vertex 2.900000e+01 4.500000e+00 7.000000e+00
         vertex 2.700000e+01 4.500000e+00 7.000000e+00
      endloop
   endfacet
   facet normal 0.000000e+00 -1.000000e+00 0.000000e+00
      outer loop
         vertex 2.900000e+01 4.500000e+00 7.000000e+00
         vertex 2.700000e+01 4.500000e+00 3.000000e+00
         vertex 2.900000e+01 4.500000e+00 3.000000e+00
      endloop
   endfacet
   facet normal 0.000000e+00 0.000000e+00 -1.000000e+00
      outer loop
         vertex -2.700000e+01 6.000000e+00 8.000000e+00
         vertex -2.700000e+01 -6.000000e+00 8.000000e+00
         vertex -2.900000e+01 -6.000000e+00 8.000000e+00
      endloop
   endfacet
   facet normal 0.000000e+00 0.000000e+00 -1.000000e+00
      outer loop
         vertex -2.700000e+01 6.000000e+00 8.000000e+00
         vertex -2.900000e+01 -6.000000e+00 8.000000e+00
         vertex -2.900000e+01 6.000000e+00 8.000000e+00
      endloop
   endfacet
   facet normal -0.000000e+00 -1.000000e+00 -0.000000e+00
      outer loop
         vertex -2.700000e+01 6.000000e+00 4.000000e+00
         vertex -2.700000e+01 6.000000e+00 8.000000e+00
         vertex -2.900000e+01 6.000000e+00 8.000000e+00
      endloop
   endfacet
   facet normal 0.000000e+00 -1.000000e+00 0.000000e+00
      outer loop
         vertex -2.700000e+01 6.000000e+00 4.000000e+00
         vertex -2.900000e+01 6.000000e+00 8.000000e+00
         vertex -2.900000e+01 6.000000e+00 4.000000e+00
      endloop
   endfacet
   facet normal 0.000000e+00 0.000000e+00 1.000000e+00
      outer loop
         vertex -2.700000e+01 -6.000000e+00 4.000000e+00
         vertex -2.700000e+01 6.000000e+00 4.000000e+00
         vertex -2.900000e+01 6.000000e+00 4.000000e+00
      endloop
   endfacet
   facet normal 0.000000e+00 0.000000e+00 1.000000e+00
      outer loop
         vertex -2.700000e+01 -6.000000e+00 4.000000e+00
         vertex -2.900000e+01 6.000000e+00 4.000000e+00
         vertex -2.900000e+01 -6.000000e+00 4.000000e+00
      endloop
   endfacet
   facet normal 0.000000e+00 1.000000e+00 -0.000000e+00
      outer loop
         vertex -2.700000e+01 -6.000000e+00 8.000000e+00
         vertex -2.700000e+01 -6.000000e+00 4.000000e+00
         vertex -2.900000e+01 -6.000000e+00 4.000000e+00
      endloop
   endfacet
   facet normal 0.000000e+00 1.000000e+00 0.000000e+00
      outer loop
         vertex -2.700000e+01 -6.000000e+00 8.000000e+00
         vertex -2.900000e+01 -6.000000e+00 4.000000e+00
         vertex -2.900000e+01 -6.000000e+00 8.000000e+00
      endloop
   endfacet
   facet normal -1.000000e+00 0.000000e+00 0.000000e+00
      outer loop
         vertex -2.900000e+01 1.350000e+01 1.200000e+01
         vertex -2.900000e+01 1.350000e+01 -2.000000e+00
         vertex -2.900000e+01 6.000000e+00 4.000000e+00
      endloop
   endfacet
   facet normal -1.000000e+00 0.000000e+00 0.000000e+00
      outer loop
         vertex -2.900000e+01 -1.350000e+01 -2.000000e+00
         vertex -2.900000e+01 -1.350000e+01 1.200000e+01
         vertex -2.900000e+01 -6.000000e+00 4.000000e+00
      endloop
   endfacet
   facet normal -1.000000e+00 0.000000e+00 0.000000e+00
      outer loop
         vertex -2.900000e+01 6.000000e+00 4.000000e+00
         vertex -2.900000e+01 6.000000e+00 8.000000e+00
         vertex -2.900000e+01 1.350000e+01 1.200000e+01
      endloop
   endfacet
   facet normal -1.000000e+00 0.000000e+00 0.000000e+00
      outer loop
         vertex -2.900000e+01 -6.000000e+00 8.000000e+00
         vertex -2.900000e+01 -6.000000e+00 4.000000e+00
         vertex -2.900000e+01 -1.350000e+01 1.200000e+01
      endloop
   endfacet
   facet normal -1.000000e+00 0.000000e+00 0.000000e+00
      outer loop
         vertex -2.900000e+01 6.000000e+00 4.000000e+00
         vertex -2.900000e+01 1.350000e+01 -2.000000e+00
         vertex -2.900000e+01 -1.350000e+01 -2.000000e+00
      endloop
   endfacet
   facet normal -1.000000e+00 0.000000e+00 0.000000e+00
      outer loop
         vertex -2.900000e+01 -6.000000e+00 8.000000e+00
         vertex -2.900000e+01 -1.350000e+01 1.200000e+01
         vertex -2.900000e+01 6.000000e+00 8.000000e+00
      endloop
   endfacet
   facet normal -1.000000e+00 -0.000000e+00 0.000000e+00
      outer loop
         vertex -2.900000e+01 -1.350000e+01 1.200000e+01
         vertex -2.900000e+01 1.350000e+01 1.200000e+01
         vertex -2.900000e+01 6.000000e+00 8.000000e+00
      endloop
   endfacet
   facet normal -1.000000e+00 0.000000e+00 -0.000000e+00
      outer loop
         vertex -2.900000e+01 -1.350000e+01 -2.000000e+00
         vertex -2.900000e+01 -6.000000e+00 4.000000e+00
         vertex -2.900000e+01 6.000000e+00 4.000000e+00
      endloop
   endfacet
   facet normal 0.000000e+00 -1.000000e+00 0.000000e+00
      outer loop
         vertex -2.900000e+01 -1.350000e+01 1.200000e+01
         vertex -2.900000e+01 -1.350000e+01 -2.000000e+00
         vertex 2.900000e+01 -1.350000e+01 -2.000000e+00
      endloop
   endfacet
   facet normal 0.000000e+00 -1.000000e+00 0.000000e+00
      outer loop
         vertex 2.900000e+01 -1.350000e+01 1.200000e+01
         vertex -2.900000e+01 -1.350000e+01 1.200000e+01
         vertex 2.900000e+01 -1.350000e+01 -2.000000e+00
      endloop
   endfacet
   facet normal 1.000000e+00 0.000000e+00 0.000000e+00
      outer loop
         vertex 2.900000e+01 -1.350000e+01 1.200000e+01
         vertex 2.900000e+01 -1.350000e+01 -2.000000e+00
         vertex 2.900000e+01 -4.500000e+00 3.000000e+00
      endloop
   endfacet
   facet normal 1.000000e+00 0.000000e+00 0.000000e+00
      outer loop
         vertex 2.900000e+01 1.350000e+01 -2.000000e+00
         vertex 2.900000e+01 1.350000e+01 1.200000e+01
         vertex 2.900000e+01 4.500000e+00 3.000000e+00
      endloop
   endfacet
   facet normal 1.000000e+00 0.000000e+00 0.000000e+00
      outer loop
         vertex 2.900000e+01 -4.500000e+00 3.000000e+00
         vertex 2.900000e+01 -4.500000e+00 7.000000e+00
         vertex 2.900000e+01 -1.350000e+01 1.200000e+01
      endloop
   endfacet
   facet normal 1.000000e+00 0.000000e+00 0.000000e+00
      outer loop
         vertex 2.900000e+01 4.500000e+00 7.000000e+00
         vertex 2.900000e+01 4.500000e+00 3.000000e+00
         vertex 2.900000e+01 1.350000e+01 1.200000e+01
      endloop
   endfacet
   facet normal 1.000000e+00 0.000000e+00 0.000000e+00
      outer loop
         vertex 2.900000e+01 -4.500000e+00 3.000000e+00
         vertex 2.900000e+01 -1.350000e+01 -2.000000e+00
         vertex 2.900000e+01 1.350000e+01 -2.000000e+00
      endloop
   endfacet
   facet normal 1.000000e+00 0.000000e+00 0.000000e+00
      outer loop
         vertex 2.900000e+01 4.500000e+00 7.000000e+00
         vertex 2.900000e+01 1.350000e+01 1.200000e+01
         vertex 2.900000e+01 -4.500000e+00 7.000000e+00
      endloop
   endfacet
   facet normal 1.000000e+00 -0.000000e+00 0.000000e+00
      outer loop
         vertex 2.900000e+01 1.350000e+01 1.200000e+01
         vertex 2.900000e+01 -1.350000e+01 1.200000e+01
         vertex 2.900000e+01 -4.500000e+00 7.000000e+00
      endloop
   endfacet
   facet normal 1.000000e+00 0.000000e+00 0.000000e+00
      outer loop
         vertex 2.900000e+01 1.350000e+01 -2.000000e+00
         vertex 2.900000e+01 4.500000e+00 3.000000e+00
         vertex 2.900000e+01 -4.500000e+00 3.000000e+00
      endloop
   endfacet
   facet normal 0.000000e+00 1.000000e+00 -0.000000e+00
      outer loop
         vertex 2.900000e+01 1.350000e+01 1.200000e+01
         vertex 2.900000e+01 1.350000e+01 -2.000000e+00
         vertex -2.900000e+01 1.350000e+01 -2.000000e+00
      endloop
   endfacet
   facet normal 0.000000e+00 1.000000e+00 0.000000e+00
      outer loop
         vertex -2.900000e+01 1.350000e+01 1.200000e+01
         vertex 2.900000e+01 1.350000e+01 1.200000e+01
         vertex -2.900000e+01 1.350000e+01 -2.000000e+00
      endloop
   endfacet
   facet normal 0.000000e+00 0.000000e+00 -1.000000e+00
      outer loop
         vertex 2.900000e+01 -1.350000e+01 -2.000000e+00
         vertex -2.900000e+01 -1.350000e+01 -2.000000e+00
         vertex -2.900000e+01 1.350000e+01 -2.000000e+00
      endloop
   endfacet
   facet normal 0.000000e+00 0.000000e+00 -1.000000e+00
      outer loop
         vertex 2.900000e+01 -1.350000e+01 -2.000000e+00
         vertex -2.900000e+01 1.350000e+01 -2.000000e+00
         vertex 2.900000e+01 1.350000e+01 -2.000000e+00
      endloop
   endfacet
endsolid
